<svg width="650" height="409" viewBox="0 0 650 409" fill="none" xmlns="http://www.w3.org/2000/svg">
<g clip-path="url(#clip0)">
<path opacity="0.2" d="M187.899 127.277C140.546 142.084 103.204 176.931 97.4999 241.213C92.6249 295.385 111.117 394.969 188.809 418.374C310.131 454.927 521.235 439.015 544.342 345.689C559.991 282.431 564.818 169.146 476.905 133.893C417.235 110 289.412 95.5673 187.899 127.277Z" fill="#E6E6E6"/>
<path d="M419.413 142.491L438.75 166.155C439.833 167.48 441.217 168.526 442.788 169.205C444.358 169.884 446.069 170.176 447.775 170.056C449.482 169.937 451.135 169.41 452.596 168.519C454.057 167.628 455.282 166.399 456.17 164.936L465.026 151.284L472.306 156.631C472.306 156.631 465.205 176.135 452.676 186.683C440.148 197.232 408.557 163.571 408.557 163.571L419.413 142.491Z" fill="#4FA0FA"/>
<path opacity="0.09" d="M419.413 142.491L438.75 166.155C439.833 167.48 441.217 168.526 442.788 169.205C444.358 169.884 446.069 170.176 447.775 170.056C449.482 169.937 451.135 169.41 452.596 168.519C454.057 167.628 455.282 166.399 456.17 164.936L465.026 151.284L472.306 156.631C472.306 156.631 465.205 176.135 452.676 186.683C440.148 197.232 408.557 163.571 408.557 163.571L419.413 142.491Z" fill="black"/>
<path d="M422.744 118.63C422.448 121.967 421.699 125.248 420.517 128.382C420.185 129.106 419.579 129.668 418.833 129.945C418.086 130.223 417.26 130.193 416.536 129.861C415.348 129.397 414.318 128.6 413.572 127.565C412.825 126.53 412.393 125.301 412.327 124.027L411.482 118.582C411.431 117.47 411.725 116.37 412.325 115.433C412.924 114.495 413.799 113.767 414.83 113.348C418.567 111.495 423.264 114.973 422.744 118.63Z" fill="#F4A28C"/>
<path d="M411.645 119.492L405.194 137.956L415.626 140.784L416.13 126.221L411.645 119.492Z" fill="#F4A28C"/>
<path d="M422.208 122.369L423.442 124.921C423.515 125.065 423.549 125.225 423.542 125.386C423.534 125.546 423.486 125.703 423.401 125.84C423.317 125.977 423.198 126.089 423.058 126.168C422.917 126.246 422.758 126.287 422.598 126.286H420.274L422.208 122.369Z" fill="#F4A28C"/>
<path opacity="0.31" d="M416.146 129.407C414.887 128.839 413.825 127.912 413.091 126.741C412.993 129.575 413.974 132.341 415.837 134.478L416.146 129.407Z" fill="#CE8172"/>
<path d="M409.597 125.343L413.189 125.668C413.189 125.668 417.641 122.418 417.365 117.655C417.365 117.655 420.973 120.711 424.19 118.273C427.408 115.835 425.717 110.666 421.834 109.025C417.95 107.383 406.51 105.563 409.597 125.343Z" fill="#FFD200"/>
<path d="M405.194 137.972L415.626 140.784C415.626 140.784 435.126 150.536 435.468 170.04C435.809 189.544 410.004 216.622 410.004 216.622L376.383 201.799C376.383 201.799 367.543 137.322 405.194 137.972Z" fill="#4FA0FA"/>
<path d="M466.944 152.746C466.944 152.746 468.569 145.79 473.931 146.082C479.294 146.375 471.607 156.176 471.607 156.176L466.944 152.746Z" fill="#F4A28C"/>
<path d="M404.625 148.943L401.879 70.017L393.152 68.5867C393.152 68.5867 379.259 122.986 382.281 151.17C385.304 179.353 404.625 159.898 404.625 148.943Z" fill="#4FA0FA"/>
<path opacity="0.46" d="M404.625 148.943L401.879 70.017L393.152 68.5867C393.152 68.5867 379.259 122.986 382.281 151.17C385.304 179.353 404.625 159.898 404.625 148.943Z" fill="white"/>
<path d="M400.514 69.9035C400.514 69.9035 404.3 64.1498 401.034 61.5818C397.767 59.0138 395.704 58.3312 394.647 61.403C394.001 63.7674 393.819 66.2346 394.111 68.6682L400.514 69.9035Z" fill="#F4A28C"/>
<path d="M235.82 117.688C235.454 120.758 235.503 123.863 235.966 126.92C236.043 127.281 236.191 127.624 236.402 127.927C236.612 128.231 236.882 128.489 237.193 128.687C237.505 128.885 237.853 129.02 238.217 129.082C238.581 129.144 238.954 129.133 239.314 129.049C240.487 128.861 241.581 128.337 242.463 127.541C243.345 126.745 243.978 125.711 244.286 124.563L246.106 119.687C246.371 118.686 246.318 117.627 245.954 116.657C245.59 115.687 244.933 114.854 244.075 114.275C241.02 111.999 236.048 114.291 235.82 117.688Z" fill="#F4A28C"/>
<path d="M245.781 120.63L248.056 138.72L237.997 139.272L240.386 125.88L245.781 120.63Z" fill="#F4A28C"/>
<path d="M241.572 122.645C241.572 122.645 241.686 120.5 243.279 120.711C244.871 120.922 244.741 123.962 242.547 124.238L241.572 122.645Z" fill="#F4A28C"/>
<path d="M235.625 121.183L234 123.279C233.909 123.398 233.849 123.537 233.826 123.684C233.803 123.832 233.817 123.983 233.867 124.123C233.917 124.264 234.002 124.39 234.113 124.489C234.224 124.589 234.358 124.659 234.504 124.693L236.616 125.165L235.625 121.183Z" fill="#F4A28C"/>
<path d="M237.997 139.354C237.997 139.354 222.625 141.629 218.059 122.125C213.492 102.621 234.097 87.9935 234.097 87.9935C234.097 87.9935 244.481 85.2467 239.557 79.7206C234.634 74.1945 228.182 83.9302 228.182 83.9302C228.182 83.9302 196.982 98.3144 203.255 125.912C209.527 153.51 226.687 162.32 226.687 162.32L237.997 139.354Z" fill="#F4A28C"/>
<path opacity="0.31" d="M239.736 128.789C240.976 128.508 242.106 127.869 242.986 126.952C242.511 129.55 241.071 131.873 238.956 133.454L239.736 128.789Z" fill="#CE8172"/>
<path d="M225.014 147.269C225.014 147.269 204.457 168.854 219.749 181.856C235.04 194.859 242.32 202.222 242.32 202.222L270.757 193.25C270.757 193.25 269.506 170.105 274.007 156.842C278.509 143.58 271.001 135.957 263.347 135.632C255.694 135.307 244.205 131.325 225.014 147.269Z" fill="#4FA0FA"/>
<path opacity="0.09" d="M245.733 135.876C245.733 135.876 234.715 150.682 244.189 162.385C253.663 174.087 257.449 197.459 257.449 197.459L270.757 193.25C270.757 193.25 270.124 171.503 272.594 162.368C273.816 158.481 274.755 154.51 275.405 150.487C275.795 146.505 259.594 133.048 259.594 133.048L245.733 135.876Z" fill="black"/>
<path d="M266.224 160.125C256.002 167.098 244.871 152.6 253.955 144.197C256.483 141.814 259.201 139.64 262.08 137.696C272.301 130.967 283.351 102.573 270.205 87.7658C270.205 87.7658 262.681 78.8103 268.58 75.8847C274.479 72.9591 275.551 86.238 275.551 86.238C275.551 86.238 297.213 109.269 286.488 131.065C280.67 142.848 273.991 154.827 266.224 160.125Z" fill="#F4A28C"/>
<path d="M240.874 119.216C240.874 119.216 240.987 138.947 253.711 138.557C266.435 138.167 269.393 131.958 271.229 126.871C273.065 121.784 250.689 132.267 249.73 118.224C248.771 104.181 237.185 107.253 234.211 111.967C231.237 116.68 240.874 119.216 240.874 119.216Z" fill="#24285B"/>
<path d="M305.695 59.4364C306.312 59.9565 308.295 57.5023 308.555 56.9659C309.709 55.0842 310.19 52.8666 309.92 50.6759C309.579 49.3431 308.214 47.3115 306.67 47.2627C305.799 47.3635 304.973 47.7061 304.287 48.2519C303.601 48.7977 303.081 49.5248 302.786 50.3508C302.127 51.5687 301.536 52.8221 301.015 54.1053C300.609 55.2756 301.226 55.7306 302.104 56.462C303.29 57.4698 304.492 58.4449 305.695 59.4364Z" fill="#F4A28C"/>
<path d="M303.615 124.596C303.615 124.596 300.885 86.8881 308.262 59.9076L301.015 54.1052C301.015 54.1052 280.036 102.654 288.015 151.901L303.615 124.596Z" fill="#4FA0FA"/>
<path d="M361.611 71.1716C360.831 71.6592 359.564 68.7011 359.45 68.2785C358.816 65.9705 357.289 63.4025 358.784 61.0133C359.232 60.3872 359.825 59.8795 360.513 59.5341C361.201 59.1886 361.963 59.0158 362.732 59.0304C364.357 59.3555 365.332 61.1433 365.787 62.5899C366.277 63.8861 366.69 65.2104 367.022 66.5557C367.25 67.7909 366.584 68.181 365.609 68.7336L361.611 71.1716Z" fill="#F4A28C"/>
<path d="M354.331 135.941C354.331 135.941 362.456 99.0297 358.995 71.2691L367.022 66.5557C367.022 66.5557 380.803 117.607 365.901 165.213L354.331 135.941Z" fill="#4FA0FA"/>
<path opacity="0.46" d="M303.615 124.596C303.615 124.596 300.885 86.8881 308.262 59.9076L301.015 54.1052C301.015 54.1052 280.036 102.654 288.015 151.901L303.615 124.596Z" fill="white"/>
<path opacity="0.46" d="M354.331 135.941C354.331 135.941 362.456 99.0297 358.995 71.2691L367.022 66.5557C367.022 66.5557 380.803 117.607 365.901 165.213L354.331 135.941Z" fill="white"/>
<path d="M367.039 155.396C363.967 187.902 346.596 215.061 346.596 215.061L304.769 212.688C304.769 212.688 259.269 123.198 317.769 121.914H320.352H329.371C332.001 122.038 334.619 122.353 337.204 122.857C338.504 123.1 339.901 123.409 341.38 123.783C343.483 124.32 345.551 124.988 347.571 125.782C357.987 129.829 368.664 138.2 367.039 155.396Z" fill="#4FA0FA"/>
<path d="M348.871 225.204L346.58 215.061L304.752 212.688L303.615 225.204H348.871Z" fill="#24285B"/>
<path opacity="0.08" d="M347.604 125.75C346.629 132.04 344.191 138.525 338.422 141.158C325.747 146.928 324.139 134.396 324.139 134.396C322.514 131.861 324.139 127.05 326.723 122.401L335.741 122.678C335.741 122.678 336.261 122.678 337.188 122.824C338.488 123.068 339.885 123.377 341.364 123.75C343.483 124.286 345.567 124.954 347.604 125.75Z" fill="black"/>
<path d="M322.026 120.223C322.5 121.988 322.869 123.779 323.131 125.587C323.472 128.057 324.659 131.682 328.656 131.991C334.831 132.478 335.432 122.742 335.432 122.742C335.432 122.742 338.309 113.364 331.63 112.812C325.601 112.324 319.962 112.113 322.026 120.223Z" fill="#F4A28C"/>
<path d="M335.091 123.101C335.091 123.101 335.091 120.159 337.691 120.013C340.291 119.866 339.804 125.474 335.091 123.101Z" fill="#F4A28C"/>
<path d="M323.765 122.71C323.765 122.71 324.366 119.833 321.896 119.134C319.426 118.435 318.663 123.945 323.765 122.71Z" fill="#F4A28C"/>
<path d="M322.026 120.224C322.026 120.224 312.065 119.85 315.705 112.097C319.345 104.344 320.872 109.724 322.351 103.97C323.83 98.2166 325.601 96.8838 328.851 98.948C332.101 101.012 329.712 106.327 334.165 104.442C338.617 102.556 341.607 100.915 342.875 104.637C344.142 108.359 343.476 110.26 340.649 111.869C337.821 113.478 343.005 118.127 335.774 120.987C328.542 123.848 323.846 116.111 323.846 116.111L322.026 120.224Z" fill="#24285B"/>
<path d="M442.26 188.893V283.422C442.275 294.91 440.024 306.287 435.636 316.903C431.247 327.519 424.808 337.164 416.687 345.287C408.566 353.41 398.922 359.85 388.309 364.239C377.695 368.628 366.32 370.88 354.835 370.865H295.1C283.618 370.869 272.248 368.61 261.639 364.217C251.03 359.825 241.391 353.384 233.272 345.263C225.153 337.142 218.713 327.501 214.321 316.89C209.929 306.279 207.671 294.907 207.675 283.422V188.893H442.26Z" fill="#FFD200"/>
<path d="M347.019 347.639H302.9V430.628H347.019V347.639Z" fill="#FFD200"/>
<path d="M208.861 297.807H194.87C184.208 297.594 174.055 293.208 166.591 285.591C159.126 277.974 154.945 267.734 154.945 257.068C154.945 246.402 159.126 236.161 166.591 228.544C174.055 220.928 184.208 216.542 194.87 216.329H207.675V200.076H194.87C179.924 200.328 165.676 206.444 155.196 217.104C144.716 227.765 138.844 242.117 138.844 257.068C138.844 272.018 144.716 286.371 155.196 297.031C165.676 307.692 179.924 313.807 194.87 314.06H213.184C211.223 308.794 209.776 303.351 208.861 297.807Z" fill="#FFD200"/>
<path d="M455 200.076H442.195V216.329H455C465.662 216.542 475.815 220.928 483.279 228.544C490.744 236.161 494.925 246.402 494.925 257.068C494.925 267.734 490.744 277.974 483.279 285.591C475.815 293.208 465.662 297.594 455 297.807H441.009C440.094 303.351 438.647 308.794 436.686 314.06H455C469.946 313.807 484.194 307.692 494.674 297.031C505.154 286.371 511.026 272.018 511.026 257.068C511.026 242.117 505.154 227.765 494.674 217.104C484.194 206.444 469.946 200.328 455 200.076Z" fill="#FFD200"/>
<path opacity="0.3" d="M228.394 297.904C229.157 305.495 230.019 313.182 232.797 320.318C235.917 328.223 241.09 335.151 247.784 340.386C254.478 345.621 262.448 348.973 270.871 350.094C275.226 350.614 280.914 349.557 281.759 345.218C282.36 342.194 280.134 339.431 278.102 337.091C260.097 315.133 258.927 284.04 261.657 255.825C262.519 246.918 263.672 237.946 262.697 229.055C261.722 220.165 258.31 211.177 251.501 205.391C246.772 201.36 238.16 197.687 232.667 202.254C230.434 204.326 228.805 206.967 227.955 209.893C225.469 217.223 225.517 224.943 225.972 232.647C226.33 238.596 225.046 244.155 225.225 250.152C225.734 266.059 226.79 281.976 228.394 297.904Z" fill="white"/>
<path d="M204.027 349.683L172.845 341.947L170.67 350.718L201.852 358.454L204.027 349.683Z" fill="#F2F2F2"/>
<path d="M272.952 381.923L241.299 387.42L242.845 396.324L274.497 390.827L272.952 381.923Z" fill="#F2F2F2"/>
<path d="M443.433 366.823L414.601 380.995L418.585 389.105L447.418 374.934L443.433 366.823Z" fill="#F2F2F2"/>
<path d="M189.627 165.329L172.812 173.594L175.134 178.32L191.949 170.055L189.627 165.329Z" fill="#F2F2F2"/>
<path d="M175.273 124.132L156.923 120.347L155.86 125.505L174.21 129.289L175.273 124.132Z" fill="#F2F2F2"/>
<path d="M498.202 181.905L479.852 178.121L478.789 183.278L497.139 187.062L498.202 181.905Z" fill="#F2F2F2"/>
<path d="M461.035 112.142L445.37 122.423L448.259 126.826L463.924 116.545L461.035 112.142Z" fill="#F2F2F2"/>
<path d="M491.686 330.708L459.577 331.774L459.876 340.806L491.985 339.74L491.686 330.708Z" fill="#F2F2F2"/>
<path opacity="0.43" d="M327.616 229.803L339.934 254.752C340.141 255.18 340.449 255.551 340.831 255.834C341.213 256.117 341.658 256.304 342.127 256.377L369.655 260.375C370.195 260.453 370.703 260.681 371.121 261.032C371.539 261.384 371.85 261.846 372.019 262.365C372.188 262.884 372.208 263.44 372.078 263.97C371.947 264.501 371.671 264.984 371.28 265.365L351.357 284.771C351.019 285.106 350.766 285.516 350.618 285.969C350.471 286.421 350.435 286.903 350.512 287.372L355.225 314.775C355.318 315.313 355.258 315.866 355.053 316.372C354.848 316.878 354.505 317.316 354.064 317.638C353.623 317.959 353.1 318.15 352.556 318.19C352.012 318.23 351.467 318.117 350.984 317.863L326.365 304.86C325.945 304.636 325.476 304.518 325 304.518C324.524 304.518 324.055 304.636 323.635 304.86L299.016 317.863C298.533 318.117 297.988 318.23 297.444 318.19C296.9 318.15 296.377 317.959 295.936 317.638C295.495 317.316 295.152 316.878 294.947 316.372C294.742 315.866 294.682 315.313 294.775 314.775L299.488 287.372C299.565 286.903 299.529 286.421 299.382 285.969C299.234 285.516 298.981 285.106 298.643 284.771L278.72 265.365C278.329 264.984 278.053 264.501 277.922 263.97C277.792 263.44 277.812 262.884 277.981 262.365C278.15 261.846 278.461 261.384 278.879 261.032C279.297 260.681 279.805 260.453 280.345 260.375L307.873 256.377C308.342 256.304 308.787 256.117 309.169 255.834C309.551 255.551 309.859 255.18 310.066 254.752L322.384 229.803C322.622 229.312 322.994 228.898 323.457 228.608C323.919 228.319 324.454 228.165 325 228.165C325.546 228.165 326.081 228.319 326.543 228.608C327.006 228.898 327.378 229.312 327.616 229.803Z" fill="white"/>
</g>
<defs>
<clipPath id="clip0">
<rect width="650" height="409" fill="white"/>
</clipPath>
</defs>
</svg>
