<svg width="72" height="72" viewBox="0 0 72 72" fill="none" xmlns="http://www.w3.org/2000/svg">
<g clip-path="url(#clip0)">
<path d="M24.4589 36.6117C30.5778 38.3267 34.9619 43.1573 36.637 48.5262C38.2416 47.2464 40.2047 45.6545 42.3703 43.8403L29.0784 30.5477C27.2854 32.8414 25.7146 34.9186 24.4589 36.6117Z" fill="white"/>
<path d="M63.5146 0.0499663C53.3058 1.12322 38.1397 19.2609 31.7207 27.2229L45.5962 41.0991C53.4077 34.3629 71.4416 18.2445 71.9873 8.004C72.2522 3.08747 68.4221 -0.467112 63.5146 0.0499663Z" fill="white"/>
<path d="M7.37737 45.9755C1.23121 53.6583 6.3764 60.5143 0.578852 66.6273C-0.430695 67.6917 -0.0705544 69.4404 1.27916 70.0182C10.8806 74.1287 22.972 71.4596 28.5757 65.5509C33.8445 59.9955 35.4745 50.4291 29.0823 44.0364C22.9216 37.8752 12.5874 39.4633 7.37737 45.9755Z" fill="white"/>
</g>
<defs>
<clipPath id="clip0">
<rect width="72" height="72" fill="white"/>
</clipPath>
</defs>
</svg>
