<svg width="80" height="80" viewBox="0 0 80 80" fill="none" xmlns="http://www.w3.org/2000/svg">
<path d="M11.75 2.5C7.33172 2.5 3.75 6.08172 3.75 10.5V69.5C3.75 73.9183 7.33172 77.5 11.75 77.5H68.25C72.6683 77.5 76.25 73.9183 76.25 69.5V10.5C76.25 6.08172 72.6683 2.5 68.25 2.5H11.75ZM13.75 70C13.75 71.3807 12.6307 72.5 11.25 72.5C9.86929 72.5 8.75 71.3807 8.75 70C8.75 68.6193 9.86929 67.5 11.25 67.5C12.6307 67.5 13.75 68.6193 13.75 70ZM13.75 60C13.75 61.3807 12.6307 62.5 11.25 62.5C9.86929 62.5 8.75 61.3807 8.75 60C8.75 58.6193 9.86929 57.5 11.25 57.5C12.6307 57.5 13.75 58.6193 13.75 60ZM13.75 50C13.75 51.3807 12.6307 52.5 11.25 52.5C9.86929 52.5 8.75 51.3807 8.75 50C8.75 48.6193 9.86929 47.5 11.25 47.5C12.6307 47.5 13.75 48.6193 13.75 50ZM13.75 40C13.75 41.3807 12.6307 42.5 11.25 42.5C9.86929 42.5 8.75 41.3807 8.75 40C8.75 38.6193 9.86929 37.5 11.25 37.5C12.6307 37.5 13.75 38.6193 13.75 40ZM13.75 30C13.75 31.3807 12.6307 32.5 11.25 32.5C9.86929 32.5 8.75 31.3807 8.75 30C8.75 28.6193 9.86929 27.5 11.25 27.5C12.6307 27.5 13.75 28.6193 13.75 30ZM13.75 20C13.75 21.3807 12.6307 22.5 11.25 22.5C9.86929 22.5 8.75 21.3807 8.75 20C8.75 18.6193 9.86929 17.5 11.25 17.5C12.6307 17.5 13.75 18.6193 13.75 20ZM13.75 10C13.75 11.3807 12.6307 12.5 11.25 12.5C9.86929 12.5 8.75 11.3807 8.75 10C8.75 8.61929 9.86929 7.5 11.25 7.5C12.6307 7.5 13.75 8.61929 13.75 10ZM57.5 48.75C57.5 51.5112 55.2612 53.75 52.5 53.75H27.5C24.7388 53.75 22.5 51.5112 22.5 48.75V31.25C22.5 28.4888 24.7388 26.25 27.5 26.25H52.5C55.2612 26.25 57.5 28.4888 57.5 31.25V48.75ZM71.25 70C71.25 71.3807 70.1307 72.5 68.75 72.5C67.3693 72.5 66.25 71.3807 66.25 70C66.25 68.6193 67.3693 67.5 68.75 67.5C70.1307 67.5 71.25 68.6193 71.25 70ZM71.25 60C71.25 61.3807 70.1307 62.5 68.75 62.5C67.3693 62.5 66.25 61.3807 66.25 60C66.25 58.6193 67.3693 57.5 68.75 57.5C70.1307 57.5 71.25 58.6193 71.25 60ZM71.25 50C71.25 51.3807 70.1307 52.5 68.75 52.5C67.3693 52.5 66.25 51.3807 66.25 50C66.25 48.6193 67.3693 47.5 68.75 47.5C70.1307 47.5 71.25 48.6193 71.25 50ZM71.25 40C71.25 41.3807 70.1307 42.5 68.75 42.5C67.3693 42.5 66.25 41.3807 66.25 40C66.25 38.6193 67.3693 37.5 68.75 37.5C70.1307 37.5 71.25 38.6193 71.25 40ZM71.25 30C71.25 31.3807 70.1307 32.5 68.75 32.5C67.3693 32.5 66.25 31.3807 66.25 30C66.25 28.6193 67.3693 27.5 68.75 27.5C70.1307 27.5 71.25 28.6193 71.25 30ZM71.25 20C71.25 21.3807 70.1307 22.5 68.75 22.5C67.3693 22.5 66.25 21.3807 66.25 20C66.25 18.6193 67.3693 17.5 68.75 17.5C70.1307 17.5 71.25 18.6193 71.25 20ZM71.25 10C71.25 11.3807 70.1307 12.5 68.75 12.5C67.3693 12.5 66.25 11.3807 66.25 10C66.25 8.61929 67.3693 7.5 68.75 7.5C70.1307 7.5 71.25 8.61929 71.25 10Z" fill="white"/>
<path d="M34.75 46.25V33.75L48.5 40L34.75 46.25Z" fill="white"/>
</svg>
