<svg width="539" height="407" viewBox="0 0 539 407" fill="none" xmlns="http://www.w3.org/2000/svg">
<path d="M245.823 143.127C245.823 143.127 254.331 140.31 256.394 138.919C259.023 137.158 266.394 131.29 262.715 129.1C261.08 128.121 253.871 132.228 253.871 132.228C253.871 132.228 255.066 127.055 253.446 128.167C251.826 129.278 248.832 134.234 248.832 134.234L241.79 137.499L245.823 143.127Z" fill="#F4A28C"/>
<path d="M236.047 101.76C237.752 100.469 239.326 99.0109 240.744 97.4086C241.451 96.1815 242.103 90.0438 243.099 88.6794C244.095 87.3149 246.492 87.0558 246.927 88.0298C247.232 88.9261 247.392 89.8654 247.401 90.8122C247.401 90.8122 248.507 89.034 248.695 89.7424C248.689 92.9319 247.839 96.063 246.232 98.8181C243.977 102.778 239.785 108.389 239.785 108.389L236.047 101.76Z" fill="#F4A28C"/>
<path d="M144.016 119.34C144.016 119.34 212.189 121.28 237.616 99.1638L242.647 105.141C242.647 105.141 233.612 124.214 202.038 136.4C170.464 148.586 151.024 147.372 151.024 147.372L144.016 119.34Z" fill="#001E36"/>
<path opacity="0.08" d="M144.016 119.34C144.016 119.34 212.189 121.28 237.616 99.1638L242.647 105.141C242.647 105.141 233.612 124.214 202.038 136.4C170.464 148.586 151.024 147.372 151.024 147.372L144.016 119.34Z" fill="black"/>
<path d="M110.376 290.662C110.376 290.662 108.685 294.346 110.931 296.967C113.177 299.588 111.47 302.624 108.644 301.073C105.817 299.523 102.916 291.092 102.916 291.092L107.543 286.791L110.376 290.662Z" fill="#001E36"/>
<path d="M232.186 238.309C232.186 238.309 236.112 239.308 238.292 236.613C240.471 233.919 243.745 235.068 242.751 238.132C241.758 241.195 233.959 245.564 233.959 245.564L228.897 241.797L232.186 238.309Z" fill="#001E36"/>
<path d="M144.852 88.599C145.337 92.4416 145.302 96.3319 144.748 100.165C144.552 101.07 144.006 101.861 143.228 102.365C142.451 102.868 141.506 103.043 140.6 102.852C139.121 102.622 137.741 101.967 136.628 100.967C135.514 99.9668 134.716 98.6646 134.329 97.2189L132.008 91.2375C131.668 89.989 131.724 88.6655 132.169 87.4503C132.614 86.2351 133.426 85.1883 134.492 84.455C138.379 81.5423 144.582 84.368 144.852 88.599Z" fill="#F4A28C"/>
<path d="M132.463 92.3876L129.792 115.048L142.378 115.623L139.267 98.9041L132.463 92.3876Z" fill="#F4A28C"/>
<path d="M143.193 88.9673C141.045 89.134 138.885 89.0516 136.757 88.7218C137.417 89.6406 137.794 90.7331 137.839 91.8639C137.885 92.9946 137.597 94.1139 137.013 95.0829C136.466 96.0321 135.606 96.7614 134.58 97.1455C133.554 97.5296 132.426 97.5445 131.39 97.1878L131.138 88.2512C131.061 86.975 131.331 85.7018 131.917 84.5659C132.504 83.4301 133.387 82.4737 134.472 81.7978C135.416 81.2094 136.396 80.6793 137.405 80.2106C139.929 79.0798 143.767 80.6421 146.008 78.8127C146.233 78.6428 146.499 78.5325 146.778 78.4919C147.058 78.4513 147.344 78.4818 147.609 78.5806C147.873 78.6793 148.109 78.8432 148.294 79.057C148.479 79.2709 148.607 79.5278 148.667 79.8042C149.183 82.5209 148.871 86.8106 145.249 88.4389C144.597 88.7257 143.903 88.9042 143.193 88.9673Z" fill="#24285B"/>
<path d="M137.751 94.8281C137.751 94.8281 137.598 92.1253 135.59 92.4398C133.582 92.7543 133.786 96.5917 136.541 96.8452L137.751 94.8281Z" fill="#F4A28C"/>
<path d="M145.238 92.983L147.283 95.5827C147.399 95.7312 147.477 95.9069 147.507 96.0934C147.538 96.2799 147.521 96.4711 147.457 96.6491C147.394 96.8271 147.286 96.9862 147.145 97.1115C147.004 97.2367 146.833 97.3241 146.648 97.3655L144.009 97.966L145.238 92.983Z" fill="#F4A28C"/>
<path opacity="0.31" d="M140.113 102.537C138.529 102.21 137.077 101.423 135.938 100.274C135.938 100.274 136.292 104.441 141.023 108.37L140.113 102.537Z" fill="#CE8172"/>
<path d="M129.792 115.034L138.353 115.442C140.439 115.544 142.529 115.525 144.612 115.384C151.292 114.897 171.196 115.239 180.483 134.795C191.714 158.512 166.476 202.211 166.476 202.211L123.173 204.065C123.173 204.065 68.4595 119.734 129.792 115.034Z" fill="#001E36"/>
<path d="M123.173 204.065C123.173 204.065 124.936 231.372 145.391 229.293C165.846 227.215 194.873 202.62 228.212 242.796L234.168 236.55C234.168 236.55 217.554 195.92 169.627 196.331L123.173 204.065Z" fill="#24285B"/>
<path d="M125.523 203.265C125.523 203.265 150.901 244.984 104.954 282.917L110.376 290.662C110.376 290.662 159.349 269.539 156.038 207.53L125.523 203.265Z" fill="#24285B"/>
<path opacity="0.08" d="M136.147 137.581C136.147 137.581 139.213 147.704 130.477 164.24C121.742 180.776 145.984 200.324 145.984 200.324L123.184 204.12C123.184 204.12 106.068 176.295 102.213 156.123C98.357 135.951 135.078 138.012 135.078 138.012L136.147 137.581Z" fill="black"/>
<path d="M118.553 125.111C139.49 122.768 183.707 152.435 245.568 134.946L246.993 144.615C246.993 144.615 193.987 168.578 130.477 164.24C96.5846 161.909 97.6024 127.453 118.553 125.111Z" fill="#001E36"/>
<path opacity="0.46" d="M118.553 125.111C139.49 122.768 183.707 152.435 245.568 134.946L246.993 144.615C246.993 144.615 193.987 168.578 130.477 164.24C96.5846 161.909 97.6024 127.453 118.553 125.111Z" fill="white"/>
<path opacity="0.08" d="M348.117 202.183C376.347 203.26 400.104 181.248 401.181 153.019C402.258 124.789 380.247 101.032 352.017 99.9548C323.788 98.8778 300.03 120.889 298.953 149.119C297.876 177.348 319.888 201.106 348.117 202.183Z" fill="black"/>
<path d="M348.117 202.183C376.347 203.26 400.104 181.248 401.181 153.019C402.258 124.789 380.247 101.032 352.017 99.9548C323.788 98.8778 300.03 120.889 298.953 149.119C297.876 177.348 319.888 201.106 348.117 202.183Z" fill="#FFD200"/>
<g opacity="0.08">
<path opacity="0.08" d="M346.907 191.484C375.137 192.56 398.894 170.549 399.971 142.32C401.048 114.09 379.037 90.3326 350.807 89.2557C322.578 88.1787 298.82 110.19 297.743 138.42C296.666 166.649 318.678 190.407 346.907 191.484Z" fill="black"/>
</g>
<path opacity="0.08" d="M348.117 202.183C376.347 203.26 400.104 181.248 401.181 153.019C402.258 124.789 380.247 101.032 352.017 99.9548C323.788 98.8778 300.03 120.889 298.953 149.119C297.876 177.348 319.888 201.106 348.117 202.183Z" fill="black"/>
<path d="M346.907 191.484C375.137 192.56 398.894 170.549 399.971 142.32C401.048 114.09 379.037 90.3326 350.807 89.2557C322.578 88.1787 298.82 110.19 297.743 138.42C296.666 166.649 318.678 190.407 346.907 191.484Z" fill="#FFD200"/>
<path d="M341.678 118.587C343.048 118.033 343.616 118.338 344.159 119.667L345.331 122.516C350.996 121.074 355.176 122.487 359.363 126.207C360.669 127.309 360.636 128.184 359.371 129.538L357.052 131.985C355.982 133.171 355.215 133.142 353.88 132.066C351.072 129.68 348.603 129.019 344.603 130.647C339.657 132.683 337.988 135.073 339.345 138.389C340.234 140.54 342.763 141.068 344.964 140.626C346.471 140.366 347.958 140.004 349.415 139.541C352.106 138.589 354.921 138.029 357.772 137.878C359.188 137.766 360.613 137.917 361.975 138.321C363.461 138.976 364.8 139.923 365.913 141.105C367.026 142.287 367.891 143.681 368.455 145.203C371.072 151.547 368.589 157.601 361.552 161.782L362.785 164.81C363.34 166.179 363.128 166.791 361.785 167.334L358.593 168.655C357.224 169.196 356.587 168.929 356.045 167.586L354.809 164.627C348.678 166.267 343.566 164.899 339.488 160.455C339.255 160.247 339.074 159.988 338.957 159.698C338.84 159.409 338.791 159.096 338.813 158.785C338.835 158.473 338.929 158.171 339.086 157.901C339.243 157.631 339.459 157.401 339.719 157.228L342.15 155.001C343.379 153.888 344.172 153.972 345.409 155.125C348.002 157.849 351.289 158.397 355.271 156.769C360.627 154.573 362.608 151.79 361.188 148.351C360.908 147.545 360.369 146.855 359.655 146.388C358.94 145.922 358.091 145.705 357.241 145.773C355.119 145.887 353.026 146.316 351.03 147.047C348.297 147.989 345.434 148.498 342.544 148.557C341.137 148.635 339.728 148.458 338.384 148.034C336.919 147.431 335.594 146.532 334.493 145.392C333.393 144.252 332.54 142.897 331.989 141.412C329.397 135.123 331.63 129.262 338.673 125.256L337.433 122.404C336.879 121.034 337.159 120.411 338.488 119.868L341.678 118.587Z" fill="white"/>
<path d="M87.2429 312.043L298.272 214.696L296.782 253.759L436.02 187.102L436.422 231.699L242.786 321.699L249.663 272.566L92.4589 338.267L87.2429 312.043Z" fill="white"/>
<path d="M407.941 276.622L411.874 173.532L501.953 162.918L407.941 276.622Z" fill="white"/>
<path d="M287.905 176.813C286.484 174.252 285.69 171.392 285.586 168.465C285.482 165.539 286.071 162.63 287.306 159.975C287.419 159.614 287.385 159.224 287.211 158.888C287.037 158.553 286.737 158.301 286.377 158.186C286.016 158.08 285.629 158.118 285.296 158.291C284.962 158.464 284.709 158.76 284.588 159.116C283.232 162.134 282.599 165.428 282.74 168.734C282.881 172.04 283.791 175.268 285.399 178.16C285.596 178.457 285.896 178.67 286.242 178.757C286.587 178.844 286.953 178.799 287.267 178.63C287.581 178.461 287.82 178.182 287.938 177.845C288.056 177.509 288.044 177.141 287.905 176.813Z" fill="#E6E6E6"/>
<path d="M415.141 117.25C414.944 116.953 414.644 116.74 414.298 116.653C413.952 116.566 413.587 116.611 413.273 116.78C412.959 116.949 412.72 117.229 412.602 117.565C412.484 117.901 412.495 118.27 412.635 118.598C416.54 125.875 417.738 134.301 416.016 142.379C415.638 144.144 418.342 145.03 418.68 143.236C420.613 134.428 419.359 125.22 415.141 117.25Z" fill="#E6E6E6"/>
<path d="M409.077 106.528C408.98 106.17 408.757 105.86 408.45 105.654L404.58 102.81C404.419 102.707 404.239 102.637 404.05 102.604C403.861 102.571 403.668 102.577 403.482 102.619C403.126 102.711 402.815 102.929 402.609 103.233C402.508 103.396 402.44 103.576 402.41 103.765C402.38 103.954 402.387 104.147 402.432 104.332C402.528 104.686 402.745 104.995 403.046 105.205L406.983 108.052C407.306 108.254 407.695 108.322 408.068 108.242C408.429 108.154 408.742 107.929 408.941 107.615C409.039 107.453 409.101 107.273 409.125 107.086C409.148 106.898 409.132 106.708 409.077 106.528Z" fill="#E6E6E6"/>
</svg>
