<svg width="1164" height="357" xmlns="http://www.w3.org/2000/svg">

 <g>
  <title>Layer 1</title>
  <path id="svg_1" fill="#E6E6E6" d="m701.75,32.021l-50.3,-24.021l-30.818,64.5333l50.298,24.021l30.82,-64.5333z"/>
  <path id="svg_2" fill="#E6E6E6" d="m743.45,108.537l-27.12,-23.1817l-29.74,34.7897l27.11,23.181l29.75,-34.789z"/>
  <path id="svg_3" fill="#C1C1C1" d="m677.77,60.2807l-33.25,-15.8815l-11.7,24.4901l33.25,15.8816l11.7,-24.4902z"/>
  <path id="svg_4" fill="#C1C1C1" d="m723.94,122.035l-17.92,-15.3265l-11.29,13.2025l17.92,15.326l11.29,-13.202z"/>
  <path id="svg_5" fill="#C1C1C1" d="m688.82,36.9281l-9.45,-4.512l-7.87,16.4789l9.45,4.5119l7.87,-16.4788z" opacity="0.24"/>
  <path id="svg_6" fill="#C1C1C1" d="m734.64,109.428l-5.09,-4.354l-7.6,8.884l5.09,4.354l7.6,-8.884z" opacity="0.24"/>
  <path id="svg_7" fill="#C1C1C1" d="m659.84,42.1135c5.11,0.9021 9.99,-2.5104 10.89,-7.6221c0.9,-5.1117 -2.51,-9.9869 -7.62,-10.889c-5.12,-0.9022 -9.99,2.5103 -10.89,7.622c-0.91,5.1117 2.51,9.9869 7.62,10.8891z"/>
  <path id="svg_8" fill="#C1C1C1" d="m715.87,107.8335c3.01,1.4045 6.59,0.1024 7.99,-2.9083c1.41,-3.0106 0.1,-6.5898 -2.91,-7.9943c-3.01,-1.4044 -6.59,-0.1023 -7.99,2.9083c-1.41,3.0107 -0.1,6.5898 2.91,7.9943z"/>
  <path id="svg_9" fill="#E6E6E6" d="m658.41,63.7276c1.63,0.2883 3.19,-0.8024 3.48,-2.4362c0.29,-1.6338 -0.8,-3.192 -2.44,-3.4804c-1.63,-0.2883 -3.19,0.8024 -3.48,2.4362c-0.28,1.6338 0.81,3.192 2.44,3.4804z"/>
  <path id="svg_10" fill="#E6E6E6" d="m711.4,120.959c0.97,0.449 2.11,0.033 2.56,-0.93c0.45,-0.962 0.03,-2.106 -0.93,-2.555c-0.96,-0.449 -2.11,-0.032 -2.56,0.93c-0.45,0.962 -0.03,2.106 0.93,2.555z"/>
  <path id="svg_11" fill="#E6E6E6" d="m637.2,66.3418l14.35,-9.9264l1.03,13.7283l9.82,-3.3268l2.27,12.8454l-27.47,-13.3205z"/>
  <path id="svg_12" fill="#E6E6E6" d="m697.86,119.062l10.51,-3.761l-1.63,8.659l6.61,-0.431l-0.71,8.318l-14.78,-12.785z"/>
  <path id="svg_13" fill="#758592" d="m582,356.54c321.43,0 582,-32.012 582,-71.5c0,-39.488 -260.57,-71.5 -582,-71.5c-321.43,0 -582,32.012 -582,71.5c0,39.488 260.57,71.5 582,71.5z" opacity="0.3"/>
  <path id="svg_14" fill="#FFD200" d="m424.942,137.156c0,0 -33.531,16.075 -37.905,53.116c-4.375,37.041 -16.73,108.571 74.228,104.491c90.958,-4.079 133.85,-9.157 112.404,-78.718c-21.446,-69.561 -148.727,-78.889 -148.727,-78.889z"/>
  <path id="svg_15" fill="black" d="m421.507,156.397c-0.94,5.228 -0.289,10.617 1.868,15.47c2.157,4.852 5.722,8.944 10.231,11.744c12.34,8.144 31.35,37.084 46.07,51.718c2.297,2.28 4.112,4.999 5.336,7.996c1.224,2.997 1.833,6.21 1.789,9.448c0,2.639 1.069,5.563 4.546,8.415c10.231,8.373 53.166,12.552 77.178,-13.207c24.011,-25.76 -7.653,-38.511 -7.653,-38.511l-105.535,-57.18l-33.83,4.107z" opacity="0.09"/>
  <path id="svg_16" fill="#F4A28C" d="m654.794,282.497c0,0 2.237,5.705 7.852,6.932c5.614,1.227 8.664,8.187 -3.606,7.131c-12.269,-1.055 -19.009,0.799 -17.242,-5.947c1.767,-6.747 0.969,-7.759 0.969,-7.759l12.027,-0.357z"/>
  <path id="svg_17" fill="#F4A28C" d="m572.401,277.747c0,0 -0.941,6.005 3.234,9.985c4.176,3.979 3.292,11.41 -6.697,4.279c-9.989,-7.132 -16.758,-9 -11.813,-13.907c4.944,-4.906 4.773,-6.19 4.773,-6.19l10.503,5.833z"/>
  <path id="svg_18" fill="#24285B" d="m583.116,192.383c0,0 75.027,0.77 74.3,90.328l-17.699,3.009c0,0 -3.405,-94.578 -100.904,-49.521l5.087,-37.255l39.216,-6.561z"/>
  <path id="svg_19" fill="black" d="m583.116,192.383c0,0 75.027,0.77 74.3,90.328l-17.699,3.009c0,0 -3.405,-94.578 -100.904,-49.521l5.087,-37.255l39.216,-6.561z" opacity="0.09"/>
  <path id="svg_20" fill="#FFD200" d="m589.002,109.942l6.512,1.74l-4.631,-4.992l-1.881,3.252z"/>
  <path id="svg_21" fill="#F4A28C" d="m486.658,154.272c0,0 12.968,32.805 44.617,27.029c31.649,-5.777 43.676,-72.229 43.676,-72.229c0,0 12.512,-8.144 6.455,-17.2294c-6.056,-9.0856 -15.903,10.5684 -15.903,10.5684c0,0 -13.637,55.997 -43.149,37.84l-35.696,14.021z"/>
  <path id="svg_22" fill="black" d="m486.658,154.272c0,0 12.968,32.805 44.617,27.029c31.649,-5.777 43.676,-72.229 43.676,-72.229c0,0 12.512,-8.144 6.455,-17.2294c-6.056,-9.0856 -15.903,10.5684 -15.903,10.5684c0,0 -13.637,55.997 -43.149,37.84l-35.696,14.021z" opacity="0.09"/>
  <path id="svg_23" fill="#4FA0FA" d="m487.057,87.6349l6.84,1.4263c0,0 52.868,28.7258 43.035,57.4948c-9.832,28.768 11.643,56.082 11.643,56.082l-45.971,32.406c0,0 -60.049,-29.824 -51.058,-111.98c0,0 4.176,-38.2674 35.511,-35.4291z"/>
  <path id="svg_24" fill="#E6E6E6" d="m608.55,103.876l-8.669,-4.1719l-35.588,74.0789l8.669,4.172l35.588,-74.079z"/>
  <path id="svg_25" fill="#4FA0FA" d="m731.317,276.535c0,0 -14.592,-3.994 -17.77,-17.586c0,0 22.615,-4.579 23.256,18.784l-5.486,-1.198z" opacity="0.58"/>
  <path id="svg_26" fill="#4FA0FA" d="m733.069,275.109c0,0 -10.203,-16.132 -1.225,-31.222c0,0 17.199,10.925 9.561,31.265l-8.336,-0.043z" opacity="0.73"/>
  <path id="svg_27" fill="#4FA0FA" d="m735.691,275.109c0,0 5.387,-17.045 21.675,-20.268c0,0 3.063,11.068 -10.545,20.311l-11.13,-0.043z"/>
  <path id="svg_28" fill="#24285B" d="m725.104,274.695l2.963,20.268l18.639,0.071l2.751,-20.239l-24.353,-0.1z"/>
  <path id="svg_29" fill="#F4A28C" d="m484.549,51.5494l-9.519,33.5896l18.867,3.9223l-0.641,-26.0158l-8.707,-11.4961z"/>
  <path id="svg_30" fill="#CE8172" d="m493.641,68.7364c-2.29,-0.8939 -4.27,-2.4351 -5.7,-4.4359c0,0 -0.485,6.3756 5.7,13.4644l0,-9.0285z" opacity="0.31"/>
  <path id="svg_31" fill="#F4A28C" d="m504.086,52.6049c0,0 -0.94,10.6117 -3.933,17.2441c-0.289,0.6465 -0.704,1.229 -1.22,1.7135c-0.516,0.4844 -1.123,0.8611 -1.787,1.108c-0.663,0.247 -1.369,0.3593 -2.076,0.3303c-0.707,-0.0289 -1.401,-0.1986 -2.042,-0.4989c-3.32,-1.5547 -7.353,-4.6212 -7.538,-10.3693l-1.511,-9.7131c-0.095,-1.9772 0.424,-3.9355 1.485,-5.6057c1.062,-1.6702 2.614,-2.9706 4.443,-3.7224c6.698,-3.3233 15.077,3.0095 14.179,9.5135z"/>
  <path id="svg_32" fill="#F4A28C" d="m491.361,59.5368c0,0 0.641,-4.0507 -2.451,-4.279c-3.092,-0.2282 -4.047,5.6197 0,6.8891l2.451,-2.6101z"/>
  <path id="svg_33" fill="#F4A28C" d="m503.146,59.1802l2.208,4.5642c0.125,0.2596 0.182,0.5466 0.167,0.8343c-0.016,0.2877 -0.104,0.5669 -0.256,0.8115c-0.152,0.2447 -0.363,0.4469 -0.614,0.5881c-0.251,0.1411 -0.534,0.2166 -0.821,0.2193l-4.133,0l3.449,-7.0174z"/>
  <path id="svg_34" fill="#24285B" d="m590.89,106.688l-32.555,-18.8126l-1.874,3.2486l32.555,18.813l1.874,-3.249z"/>
  <path id="svg_35" fill="black" d="m513.149,217.201l-10.545,17.843c0,0 -38.233,-18.542 -49.191,-68.72c-10.958,-50.177 25.194,-30.623 25.194,-30.623l34.542,81.5z" opacity="0.18"/>
  <path id="svg_36" fill="#24285B" d="m502.604,235.044c0,0 35.425,-72.285 87.808,-72.014c52.383,0.271 -15.675,116.643 -15.675,116.643l-17.271,-7.032c0,0 25.65,-49.92 19.124,-65.995c-6.527,-16.074 -16.502,94.807 -73.986,28.398z"/>
  <path id="svg_37" fill="#F4A28C" d="m472.294,91.6857c0,0 15.761,-8.0016 23.769,8.2583c8.009,16.26 1.696,86.192 34.2,89.857c32.505,3.666 48.992,-30.223 48.992,-30.223c0,0 2.679,-14.263 7.125,-16.631c4.446,-2.367 8.365,12.623 0,21.395c0,0 -14.336,53.9 -59.85,55.112c-45.515,1.213 -99.109,-90.855 -54.236,-127.7683z"/>
  <path id="svg_38" fill="#E6E6E6" d="m504.157,38.7697c0,0 10.36,12.1949 -3.049,14.748c-13.409,2.5531 -16.174,4.9636 -14.891,18.542c1.282,13.5785 6.597,26.0872 -11.187,34.6023c-17.784,8.515 -2.493,22.821 -5.771,39.509c-3.277,16.687 -18.91,28.212 -38.931,16.83c-20.021,-11.382 -32.376,-40.507 -10.915,-57.951c21.46,-17.4435 48.45,-21.6797 48.45,-49.8065c0,-28.1267 22.429,-29.5816 36.294,-16.4738z"/>
  <path id="svg_39" fill="#4FA0FA" d="m589.837,163.396l-13.275,-5.066l-2.859,7.504l13.276,5.066l2.858,-7.504z"/>
  <path id="svg_40" fill="white" d="m589.837,163.396l-13.275,-5.066l-2.859,7.504l13.276,5.066l2.858,-7.504z" opacity="0.44"/>
 </g>
</svg>