<svg width="72" height="72" viewBox="0 0 72 72" fill="none" xmlns="http://www.w3.org/2000/svg">
<path d="M67.7812 5.04211H4.21875C1.88873 5.04211 0 6.93085 0 9.26086V40.9677H72V9.26086C72 6.93085 70.1113 5.04211 67.7812 5.04211ZM25.6324 29.4457C26.5946 30.1026 26.8421 31.4151 26.1852 32.3772C25.7768 32.9754 25.1148 33.2975 24.4412 33.2975C24.0315 33.2975 23.6177 33.1784 23.2537 32.93L15.5184 27.6491C14.8224 27.174 14.407 26.3872 14.407 25.5447C14.4072 24.702 14.8227 23.9155 15.5185 23.4405L23.2537 18.1596C24.2159 17.5029 25.5284 17.7503 26.1852 18.7124C26.8421 19.6746 26.5946 20.987 25.6324 21.6439L19.9183 25.545L25.6324 29.4457ZM42.0729 19.0463L33.6047 34.1104C33.2176 34.7991 32.5015 35.1865 31.7641 35.1865C31.4139 35.1865 31.0593 35.0993 30.7325 34.9155C29.7169 34.3446 29.3565 33.0585 29.9272 32.0431L38.3954 16.9789C38.9663 15.9633 40.2525 15.603 41.2678 16.1737C42.2833 16.7448 42.6437 18.0308 42.0729 19.0463ZM56.4818 27.649L48.7463 32.93C48.3825 33.1784 47.9685 33.2975 47.5588 33.2975C46.8851 33.2975 46.2233 32.9756 45.8148 32.3772C45.1579 31.4151 45.4054 30.1026 46.3676 29.4457L52.0817 25.5447L46.3676 21.6436C45.4054 20.9867 45.1579 19.6743 45.8148 18.7121C46.4716 17.7501 47.7841 17.5026 48.7463 18.1593L56.4816 23.4404C57.1773 23.9151 57.5928 24.7018 57.593 25.5444C57.5931 26.3872 57.1777 27.1738 56.4818 27.649Z" fill="white"/>
<path d="M0 45.1865V49.7994C0 52.1294 1.88873 54.0181 4.21875 54.0181H29.7413V62.7391H24.4557C23.2907 62.7391 22.3463 63.6836 22.3463 64.8485C22.3463 66.0134 23.2907 66.9579 24.4557 66.9579H47.5445C48.7094 66.9579 49.6538 66.0134 49.6538 64.8485C49.6538 63.6836 48.7094 62.7391 47.5445 62.7391H42.2588V54.0181H67.7812C70.1113 54.0181 72 52.1294 72 49.7994V45.1865H0Z" fill="white"/>
</svg>
