<svg width="694" height="487" viewBox="0 0 694 487" fill="none" xmlns="http://www.w3.org/2000/svg">
<g filter="url(#filter0_d)">
<path d="M356.074 432.633L641.622 263.7C650.713 258.583 658.505 250.2 649.647 244.7L363.084 79.3834C358.788 76.7167 352.261 74.9667 347.882 77.5167L48.1824 251.65C39.0915 256.933 37.4598 271.65 46.5174 276.983L318.445 432.333C324.15 435.653 330.621 437.426 337.22 437.479C343.819 437.532 350.317 435.861 356.074 432.633Z" fill="#8DCCFF"/>
</g>
<path style="mix-blend-mode:multiply" d="M231.882 323.917L186.494 349.133C186.494 349.133 228.902 382.6 247.933 390.667L293.37 363.583" fill="url(#paint0_linear)"/>
<path style="mix-blend-mode:multiply" d="M230.034 223.1L184.646 248.317C184.646 248.317 195.518 265.533 214.616 273.533L263.667 246.45" fill="url(#paint1_linear)" fill-opacity="0.25"/>
<path style="mix-blend-mode:multiply" d="M475.538 322.533C475.538 322.533 530.4 291.783 530.733 291.267L445.501 248.317L397.566 276.017L475.538 322.533Z" fill="url(#paint2_linear)" fill-opacity="0.5"/>
<path style="mix-blend-mode:multiply" d="M401.302 249C401.302 249 426.845 234.499 427 234.255L387.318 214L365 227.063L401.302 249Z" fill="url(#paint3_linear)" fill-opacity="0.25"/>
<path d="M538.475 196.967L608.072 240.15C608.71 240.545 609.234 241.099 609.593 241.758C609.951 242.417 610.132 243.159 610.117 243.909C610.102 244.66 609.891 245.394 609.507 246.038C609.122 246.682 608.576 247.215 607.922 247.583L502.295 307.333C500.826 308.18 499.161 308.626 497.466 308.626C495.771 308.626 494.106 308.18 492.638 307.333L423.357 266.567C418.362 262.433 419.727 256.3 423.357 254.3L528.368 196.833C529.907 195.937 531.66 195.476 533.44 195.499C535.22 195.523 536.961 196.03 538.475 196.967Z" fill="#001E36"/>
<path d="M538.475 194L608.072 237.183C608.71 237.578 609.234 238.132 609.593 238.791C609.951 239.451 610.132 240.192 610.117 240.943C610.102 241.693 609.891 242.427 609.507 243.071C609.122 243.716 608.575 244.248 607.922 244.617L502.311 304.417C500.843 305.263 499.177 305.709 497.483 305.709C495.788 305.709 494.123 305.263 492.654 304.417L423.373 263.65C422.561 263.178 421.887 262.501 421.418 261.687C420.95 260.872 420.703 259.948 420.703 259.008C420.703 258.068 420.95 257.145 421.418 256.33C421.887 255.516 422.561 254.839 423.373 254.367L528.385 193.933C529.916 193.03 531.662 192.559 533.439 192.571C535.216 192.583 536.956 193.077 538.475 194Z" fill="white"/>
<path d="M533.846 196.333L603.793 240.4L499.181 300.317L427.003 257.833L533.846 196.333Z" fill="#2E2E2E"/>
<path d="M458.505 282C459.875 282 460.986 281.478 460.986 280.833C460.986 280.189 459.875 279.667 458.505 279.667C457.135 279.667 456.024 280.189 456.024 280.833C456.024 281.478 457.135 282 458.505 282Z" fill="#383097"/>
<path style="mix-blend-mode:multiply" d="M536.427 269.367C536.427 269.367 545.535 252.417 545.585 252.333L544.019 251.55L524.672 262.733L536.427 269.367Z" fill="url(#paint4_linear)"/>
<path d="M618.228 206.85C618.205 206.729 618.205 206.604 618.228 206.483C617.278 205.986 616.256 205.643 615.198 205.467L550.263 244.267C550.263 244.267 546.367 247.317 553.593 251.433L619.511 212.217C619.447 210.36 619.011 208.535 618.228 206.85Z" fill="white"/>
<path d="M550.13 244.25C550.13 244.25 542.571 252.717 542.438 253.267C542.304 253.817 553.377 251.417 553.377 251.417" fill="#CCCCCC"/>
<path d="M619.272 212.23C620.467 211.54 620.544 209.435 619.446 207.53C618.347 205.625 616.488 204.64 615.293 205.331C614.098 206.021 614.021 208.125 615.12 210.03C616.219 211.935 618.078 212.92 619.272 212.23Z" fill="#F2F2F2"/>
<path d="M290.074 190.133L317.346 203.283C318.371 203.779 319.242 204.545 319.866 205.498C320.489 206.451 320.842 207.556 320.887 208.695C320.931 209.834 320.666 210.963 320.118 211.962C319.571 212.961 318.762 213.792 317.779 214.367L253.127 252.117C251.73 252.932 250.071 253.175 248.499 252.797C246.926 252.418 245.56 251.446 244.686 250.083L228.985 225.667" fill="#001E36"/>
<path d="M141.672 126.9L359.221 1.45002C360.713 0.585699 362.407 0.130398 364.131 0.130005C365.855 0.129613 367.548 0.584144 369.041 1.44778C370.533 2.31142 371.772 3.55365 372.632 5.04925C373.492 6.54486 373.943 8.24099 373.94 9.96668V140.467C373.939 141.899 373.561 143.306 372.845 144.547C372.129 145.787 371.1 146.817 369.86 147.533L137.976 281.517C137.176 281.979 136.268 282.223 135.344 282.222C134.42 282.222 133.512 281.978 132.712 281.515C131.912 281.052 131.248 280.387 130.787 279.585C130.325 278.784 130.083 277.875 130.084 276.95V146.95C130.089 142.884 131.163 138.892 133.197 135.372C135.231 131.853 138.154 128.931 141.672 126.9Z" fill="#3B80C9"/>
<path d="M359.188 11.3167L148.266 132.8C146.012 134.098 144.141 135.968 142.84 138.221C141.54 140.474 140.855 143.031 140.856 145.633V243.467C140.859 244.402 141.106 245.321 141.574 246.13C142.042 246.94 142.714 247.613 143.522 248.082C144.331 248.551 145.248 248.799 146.183 248.802C147.117 248.806 148.036 248.563 148.848 248.1L363.966 124.533C364.77 124.073 365.438 123.408 365.903 122.606C366.368 121.804 366.613 120.894 366.614 119.967V15.6667C366.611 14.797 366.381 13.9432 365.947 13.1896C365.514 12.4359 364.891 11.8085 364.142 11.3692C363.392 10.93 362.54 10.6941 361.672 10.6849C360.803 10.6757 359.947 10.8934 359.188 11.3167Z" fill="white"/>
<path d="M275.909 191.511C276.457 188.663 274.888 185.967 272.405 185.489C269.922 185.01 267.465 186.93 266.917 189.777C266.369 192.624 267.938 195.321 270.421 195.799C272.904 196.278 275.361 194.358 275.909 191.511Z" fill="#001E36"/>
<path d="M369.91 246.55L426.82 279.1C427.415 279.444 427.909 279.938 428.252 280.534C428.595 281.129 428.776 281.804 428.776 282.492C428.776 283.179 428.595 283.854 428.252 284.45C427.909 285.045 427.415 285.54 426.82 285.883L268.745 376.917C266.828 378.022 264.655 378.604 262.443 378.604C260.231 378.604 258.058 378.022 256.141 376.917L202.861 346.133C202.242 345.775 201.729 345.259 201.371 344.639C201.014 344.019 200.826 343.316 200.826 342.6C200.826 341.884 201.014 341.181 201.371 340.561C201.729 339.941 202.242 339.425 202.861 339.067L362.801 246.583C363.878 245.95 365.102 245.614 366.351 245.608C367.6 245.602 368.828 245.927 369.91 246.55Z" fill="#001E36"/>
<path d="M283.913 298.45L300.164 308.083L288.109 315.1C284.779 313.117 274.955 307.35 271.809 305.5L283.913 298.45Z" fill="white"/>
<path d="M301.712 288.1L317.962 297.733L302.694 306.617C300.03 305.067 290.19 299.25 286.394 297.017L301.712 288.1Z" fill="white"/>
<path d="M366.381 250.517L382.881 260L368.195 268.533C365.864 267.183 355.908 261.3 351.895 258.933L366.381 250.517Z" fill="white"/>
<path d="M331.615 270.667L347.866 280.3L335.811 287.3C332.964 285.633 323.157 279.85 319.511 277.7L331.615 270.667Z" fill="white"/>
<path d="M349.414 260.367L365.665 270L350.33 278.883C348.532 277.85 338.309 271.817 334.03 269.283L349.414 260.367Z" fill="white"/>
<path d="M269.328 306.933L285.578 316.567L274.04 323.233C270.576 321.2 260.82 315.45 257.739 313.633L269.328 306.933Z" fill="white"/>
<path d="M317.03 279.2L333.28 288.833L320.51 296.25C317.513 294.583 307.739 288.733 304.209 286.65L317.03 279.2Z" fill="white"/>
<path d="M255.258 315.117L271.509 324.75L256.241 333.633C253.044 331.767 243.304 326.017 239.94 324.033L255.258 315.117Z" fill="white"/>
<path d="M237.443 325.467L253.693 335.1L226.304 351.017L209.787 341.533L237.443 325.467Z" fill="white"/>
<path d="M384.995 262.817L401.495 272.3L380.167 284.7C377.37 283.033 367.563 277.283 363.866 275.1L384.995 262.817Z" fill="white"/>
<path d="M343.57 286.883L359.82 296.517L347.766 303.533C344.536 301.65 334.796 295.9 331.466 293.933L343.57 286.883Z" fill="white"/>
<path d="M313.7 304.267L329.95 313.9L314.682 322.783C311.619 321 301.862 315.233 298.382 313.183L313.7 304.267Z" fill="white"/>
<path d="M328.985 295.367L345.235 305L332.465 312.417C329.135 310.467 319.361 304.7 316.164 302.817L328.985 295.367Z" fill="white"/>
<path d="M295.868 314.617L312.118 324.25L300.064 331.267C296.334 329.083 286.527 323.283 283.763 321.667L295.868 314.617Z" fill="white"/>
<path d="M281.282 323.1L297.533 332.733L285.994 339.4C282.198 337.183 272.375 331.367 269.694 329.8L281.282 323.1Z" fill="white"/>
<path d="M361.369 276.533L377.619 286.167L362.351 295.033C359.937 293.633 349.997 287.767 346.051 285.433L361.369 276.533Z" fill="white"/>
<path d="M267.213 331.283L283.464 340.917L268.196 349.8C264.666 347.733 254.876 341.967 251.895 340.2L267.213 331.283Z" fill="white"/>
<path d="M265.648 351.267L244.902 363.317L228.402 353.833L249.398 341.617L265.648 351.267Z" fill="white"/>
<path d="M277.803 349.617L289.891 356.8L275.871 364.917L263.6 357.867L277.803 349.617Z" fill="white"/>
<path d="M272.974 366.6L261.053 373.517L248.765 366.483L260.903 359.433L272.974 366.6Z" fill="white"/>
<path d="M405.342 275.467L417.996 282.483L403.643 290.817L391.222 283.667L405.342 275.467Z" fill="white"/>
<path d="M388.542 285.233L400.746 292.483L385.428 301.383L373.024 294.25L388.542 285.233Z" fill="white"/>
<path d="M370.327 295.817L382.514 303.067L292.804 355.1L280.5 348.033L370.327 295.817Z" fill="white"/>
<path style="mix-blend-mode:multiply" d="M410.37 142.333L387.06 156.117C387.06 156.117 394.253 168.75 412.035 176.217L439.108 161.65" fill="url(#paint5_linear)" fill-opacity="0.25"/>
<path d="M429.268 162.783C441.176 162.783 450.829 155.978 450.829 147.583C450.829 139.189 441.176 132.383 429.268 132.383C417.359 132.383 407.706 139.189 407.706 147.583C407.706 155.978 417.359 162.783 429.268 162.783Z" fill="#3B80C9"/>
<path d="M429.284 145.217C438.204 145.217 445.435 142.254 445.435 138.6C445.435 134.946 438.204 131.983 429.284 131.983C420.365 131.983 413.134 134.946 413.134 138.6C413.134 142.254 420.365 145.217 429.284 145.217Z" fill="#974C26"/>
<path d="M430.35 138.75C431.615 136.967 432.897 135.1 434.229 133C435.894 130.317 437.559 127.583 439.008 124.75C440.37 122.245 441.534 119.637 442.488 116.95C443.549 114.031 444.4 111.04 445.035 108C445.202 107.2 445.335 106.333 445.485 105.6C445.485 105.233 445.485 105.267 445.485 105.317C445.485 105.367 445.485 105.067 445.485 104.617C445.635 102.95 445.734 101.283 445.751 99.7167C445.825 94.0486 444.731 88.4261 442.538 83.2C436.708 91.6632 432.777 101.289 431.016 111.417C430.905 112.017 430.799 112.622 430.699 113.233C430.699 113.233 430.533 114.333 430.466 114.783L430.3 116.3C430.222 117.067 430.15 117.839 430.083 118.617C429.85 121.6 429.734 124.583 429.75 127.567C429.884 131.3 430.05 135.033 430.35 138.75ZM437.21 94.15C437.598 93.7056 438.003 93.2722 438.425 92.85C438.34 93.2342 438.34 93.6325 438.425 94.0167C438.021 93.9951 437.616 94.0402 437.226 94.15H437.21Z" fill="#999A1C"/>
<path d="M430.766 139C430.883 136.817 430.933 134.55 430.916 132.067C430.916 128.883 430.766 125.717 430.483 122.55C430.278 119.704 429.849 116.879 429.201 114.1C428.521 111.068 427.625 108.088 426.52 105.183C426.221 104.417 425.921 103.667 425.588 102.917C425.438 102.567 425.471 102.6 425.505 102.65L425.172 102.033C424.406 100.583 423.623 99.15 422.757 97.7667C419.75 92.9513 415.783 88.8093 411.102 85.6C410.764 95.8835 412.656 106.118 416.647 115.6C416.88 116.167 417.119 116.722 417.363 117.267L418.012 118.7L418.695 120.083C419.039 120.772 419.394 121.461 419.76 122.15C421.176 124.783 422.691 127.35 424.306 129.867C426.337 133.017 428.502 136.05 430.766 139ZM412.451 97.7667C412.54 97.1778 412.645 96.6222 412.767 96.1C412.88 96.4763 413.073 96.8233 413.334 97.1167C413.008 97.2934 412.71 97.5181 412.451 97.7833V97.7667Z" fill="#999A1C"/>
<path d="M430.866 140.167C430.217 138.95 429.517 137.717 428.718 136.367C427.686 134.7 426.587 133.033 425.388 131.367C424.344 129.9 423.186 128.518 421.925 127.233C420.578 125.815 419.131 124.495 417.596 123.283L416.43 122.333C416.231 122.2 416.264 122.2 416.297 122.217L415.914 121.983C415.032 121.45 414.149 120.933 413.234 120.467C410.066 118.837 406.598 117.878 403.044 117.65C406.176 123.302 410.493 128.209 415.698 132.033L416.63 132.717L417.429 133.283L418.245 133.8L419.494 134.567C421.104 135.533 422.769 136.433 424.489 137.267C426.537 138.35 428.685 139.3 430.866 140.167ZM407.689 123.833C407.545 123.489 407.412 123.139 407.29 122.783C407.471 122.951 407.687 123.076 407.922 123.15C407.81 123.364 407.731 123.595 407.689 123.833Z" fill="#999A1C"/>
<path d="M430.35 138.75C431.615 136.967 432.897 135.1 434.229 133C435.894 130.317 437.559 127.583 439.008 124.75C440.37 122.245 441.534 119.637 442.488 116.95C443.549 114.031 444.4 111.04 445.035 108C445.202 107.2 445.335 106.333 445.485 105.6C445.485 105.233 445.485 105.267 445.485 105.317C445.485 105.367 445.485 105.067 445.485 104.617C445.635 102.95 445.734 101.283 445.751 99.7167C445.825 94.0486 444.731 88.4261 442.538 83.2C436.708 91.6632 432.777 101.289 431.016 111.417C430.905 112.017 430.799 112.622 430.699 113.233C430.699 113.233 430.533 114.333 430.466 114.783L430.3 116.3C430.222 117.067 430.15 117.839 430.083 118.617C429.85 121.6 429.734 124.583 429.75 127.567C429.884 131.3 430.05 135.033 430.35 138.75ZM437.21 94.15C437.598 93.7056 438.003 93.2722 438.425 92.85C438.34 93.2342 438.34 93.6325 438.425 94.0167C438.021 93.9951 437.616 94.0402 437.226 94.15H437.21Z" fill="#54BE07"/>
<path d="M430.766 139C430.883 136.817 430.933 134.55 430.916 132.067C430.916 128.883 430.766 125.717 430.483 122.55C430.278 119.704 429.849 116.879 429.201 114.1C428.521 111.068 427.625 108.088 426.52 105.183C426.221 104.417 425.921 103.667 425.588 102.917C425.438 102.567 425.471 102.6 425.505 102.65L425.172 102.033C424.406 100.583 423.623 99.15 422.757 97.7667C419.75 92.9513 415.783 88.8093 411.102 85.6C410.764 95.8835 412.656 106.118 416.647 115.6C416.88 116.167 417.119 116.722 417.363 117.267L418.012 118.7L418.695 120.083C419.039 120.772 419.394 121.461 419.76 122.15C421.176 124.783 422.691 127.35 424.306 129.867C426.337 133.017 428.502 136.05 430.766 139ZM412.451 97.7667C412.54 97.1778 412.645 96.6222 412.767 96.1C412.88 96.4763 413.073 96.8233 413.334 97.1167C413.008 97.2934 412.71 97.5181 412.451 97.7833V97.7667Z" fill="#54BE07"/>
<path d="M430.866 140.167C430.217 138.95 429.517 137.717 428.718 136.367C427.686 134.7 426.587 133.033 425.388 131.367C424.344 129.9 423.186 128.518 421.925 127.233C420.578 125.815 419.131 124.495 417.596 123.283L416.43 122.333C416.231 122.2 416.264 122.2 416.297 122.217L415.914 121.983C415.032 121.45 414.149 120.933 413.234 120.467C410.066 118.837 406.598 117.878 403.044 117.65C406.176 123.302 410.493 128.209 415.698 132.033L416.63 132.717L417.429 133.283L418.245 133.8L419.494 134.567C421.104 135.533 422.769 136.433 424.489 137.267C426.537 138.35 428.685 139.3 430.866 140.167ZM407.689 123.833C407.545 123.489 407.412 123.139 407.29 122.783C407.471 122.951 407.687 123.076 407.922 123.15C407.81 123.364 407.731 123.595 407.689 123.833Z" fill="#54BE07"/>
<path d="M186.694 205.3L263.6 164.35L217.446 120.233L186.694 205.3Z" fill="#E88831"/>
<path d="M323.523 108.533C339.689 108.533 352.794 95.4153 352.794 79.2333C352.794 63.0514 339.689 49.9333 323.523 49.9333C307.358 49.9333 294.253 63.0514 294.253 79.2333C294.253 95.4153 307.358 108.533 323.523 108.533Z" fill="#7ACC92"/>
<path d="M170.51 147.717C165.848 145.05 161.652 152.25 166.314 154.917C180.783 163.25 169.195 181.383 158.422 186.583C153.594 188.9 157.806 196.1 162.618 193.783C179.434 185.667 190.49 159 170.51 147.717Z" fill="#56403D"/>
<path d="M303.71 127.333C299.281 106.617 271.426 119.333 276.271 138.117C278.369 146.25 287.227 150.983 294.886 146.95C298.234 145.028 300.89 142.096 302.474 138.574C304.059 135.051 304.492 131.117 303.71 127.333ZM295.685 132.533C295.508 134.072 294.948 135.541 294.054 136.805C293.161 138.069 291.964 139.088 290.573 139.767C284.213 142.2 284.363 134.117 285.928 130.25C288.725 123.083 297.05 124 295.651 132.6L295.685 132.533Z" fill="#56403D"/>
<path d="M382.814 205.25V216.9L418.761 239.183L461.918 212.783V202.85" fill="#C29A33"/>
<path d="M461.918 202.85L425.272 180.9L382.814 205.25L419.461 227.533L461.918 202.85Z" fill="#F5C54B"/>
<defs>
<filter id="filter0_d" x="0.488403" y="52.2739" width="693.054" height="441.206" filterUnits="userSpaceOnUse" color-interpolation-filters="sRGB">
<feFlood flood-opacity="0" result="BackgroundImageFix"/>
<feColorMatrix in="SourceAlpha" type="matrix" values="0 0 0 0 0 0 0 0 0 0 0 0 0 0 0 0 0 0 127 0"/>
<feOffset dy="16"/>
<feGaussianBlur stdDeviation="20"/>
<feColorMatrix type="matrix" values="0 0 0 0 0.552941 0 0 0 0 0.8 0 0 0 0 1 0 0 0 0.4 0"/>
<feBlend mode="normal" in2="BackgroundImageFix" result="effect1_dropShadow"/>
<feBlend mode="normal" in="SourceGraphic" in2="effect1_dropShadow" result="shape"/>
</filter>
<linearGradient id="paint0_linear" x1="267" y1="308.5" x2="221.164" y2="371.522" gradientUnits="userSpaceOnUse">
<stop stop-color="#001E36"/>
<stop offset="1" stop-color="white"/>
</linearGradient>
<linearGradient id="paint1_linear" x1="235.528" y1="227.902" x2="212.458" y2="257.549" gradientUnits="userSpaceOnUse">
<stop offset="0.01" stop-color="#05274A"/>
<stop offset="1" stop-color="white"/>
</linearGradient>
<linearGradient id="paint2_linear" x1="483.314" y1="255.383" x2="450.752" y2="303.303" gradientUnits="userSpaceOnUse">
<stop offset="0.01" stop-color="#05274A"/>
<stop offset="1" stop-color="white"/>
</linearGradient>
<linearGradient id="paint3_linear" x1="404.922" y1="217.333" x2="389.495" y2="239.747" gradientUnits="userSpaceOnUse">
<stop offset="0.01" stop-color="#05274A"/>
<stop offset="1" stop-color="white"/>
</linearGradient>
<linearGradient id="paint4_linear" x1="7158.93" y1="3296.78" x2="7052.92" y2="3480.11" gradientUnits="userSpaceOnUse">
<stop offset="0.01" stop-color="#4D4D4D"/>
<stop offset="1" stop-color="white"/>
</linearGradient>
<linearGradient id="paint5_linear" x1="426.154" y1="144.633" x2="402.802" y2="170.193" gradientUnits="userSpaceOnUse">
<stop stop-color="#54BE07"/>
<stop offset="0.03" stop-color="#05274A"/>
<stop offset="1" stop-color="white"/>
</linearGradient>
</defs>
</svg>
