<svg width="80" height="80" viewBox="0 0 80 80" fill="none" xmlns="http://www.w3.org/2000/svg">
<g clip-path="url(#clip0)">
<path d="M9.41799 57.0441L7.21889 60.1849C7.07423 60.3912 6.96498 60.6195 6.89296 60.8618L4.77992 67.9663C4.49183 68.9325 4.85438 69.975 5.68141 70.5536C6.50844 71.1328 7.61134 71.1176 8.42128 70.5164L14.3472 66.1206C11.4706 64.0845 9.5724 60.7916 9.41799 57.0441Z" fill="white"/>
<path d="M77.6564 35.4712H70.6245V70.6268C70.6245 72.3694 72.458 73.5028 74.0168 72.7234L79.0523 68.9886C79.6486 68.5467 80.0001 67.8479 80.0001 67.1063V37.8149C80.0001 36.5204 78.9509 35.4712 77.6564 35.4712Z" fill="white"/>
<path d="M46.783 7.76853C45.7216 7.02512 44.2616 7.28269 43.5182 8.34409L39.485 14.104L47.1651 19.4818L51.1983 13.7219C51.9417 12.6605 51.6841 11.2005 50.6227 10.4571L46.783 7.76853Z" fill="white"/>
<path d="M17.5308 45.4584C18.6599 45.0952 19.8409 44.8462 21.0891 44.8462H29.4045L44.4766 23.3215L36.7965 17.9437L17.5308 45.4584Z" fill="white"/>
<path d="M16.7884 25.7152C15.4926 26.278 14.4098 27.2027 13.6524 28.3953L0.735501 48.7334C-0.883152 51.9726 0.26553 55.852 3.2471 57.7673C3.30142 57.6818 3.31912 57.5811 3.3771 57.4981L28.5743 21.5117C27.6337 21.455 26.6724 21.5148 25.7038 21.8419L16.7884 25.7152Z" fill="white"/>
<path d="M18.7452 68.0487V69.458C18.7452 71.3995 20.3193 72.9736 22.2615 72.9736C24.203 72.9736 25.7771 71.3995 25.7771 69.458V68.2861H21.089C20.287 68.2861 19.5033 68.2031 18.7452 68.0487Z" fill="white"/>
<path d="M30.4652 68.2861V69.458C30.4652 71.3995 32.0393 72.9736 33.9808 72.9736C35.7008 72.9736 37.0662 71.7145 37.3707 70.0824C36.6072 69.7662 35.8314 69.4806 35.0911 69.1144L33.4657 68.2855H30.4652V68.2861Z" fill="white"/>
<path d="M65.9364 35.4712H61.6347L46.7402 28.2599L35.2717 44.6399C38.1233 44.1968 40.8192 42.8979 42.8712 40.8453C43.7867 39.9298 45.2705 39.9298 46.186 40.8453C47.1016 41.7609 47.1016 43.2446 46.186 44.1602C42.7705 47.5751 38.0415 49.5349 33.2118 49.5349C30.6898 49.5349 20.3682 49.5349 21.0896 49.5349C17.3347 49.5349 14.0577 52.5842 14.0577 56.5662C14.0577 60.4578 17.1986 63.598 21.0896 63.598H34.5906C35.7161 64.0381 41.9783 68.2861 51.5608 68.2861C56.4107 68.2861 61.5657 67.1527 65.9364 65.0507V35.4712Z" fill="white"/>
</g>
<defs>
<clipPath id="clip0">
<rect width="80" height="80" fill="white"/>
</clipPath>
</defs>
</svg>
