<svg width="32" height="32" viewBox="0 0 32 32" fill="none" xmlns="http://www.w3.org/2000/svg">
<circle cx="16" cy="16" r="16" fill="#494264"/>
<path d="M16.1051 15.7995C18.1434 15.7995 19.796 13.7923 19.796 11.3164C19.796 8.84039 19.2534 6.83325 16.1051 6.83325C12.9567 6.83325 12.4141 8.84039 12.4141 11.3164C12.4141 13.7923 14.0666 15.7995 16.1051 15.7995Z" fill="white"/>
<path d="M23.0742 22.7626C23.0762 22.7213 23.0749 22.4759 23.0742 22.7626V22.7626Z" fill="white"/>
<path d="M23.0676 22.4637C22.9992 18.1505 22.4359 16.9215 18.1253 16.1436C18.1253 16.1436 17.5185 16.9168 16.1042 16.9168C14.69 16.9168 14.0831 16.1436 14.0831 16.1436C9.81953 16.913 9.22196 18.1238 9.14339 22.3236C9.13695 22.6665 9.13396 22.6845 9.13281 22.6447C9.13307 22.7193 9.13339 22.8573 9.13339 23.0979C9.13339 23.0979 10.1596 25.1667 16.1042 25.1667C22.0488 25.1667 23.0751 23.0979 23.0751 23.0979C23.0751 22.9433 23.0752 22.8358 23.0754 22.7627C23.0742 22.7873 23.0719 22.7396 23.0676 22.4637Z" fill="white"/>
</svg>
